<?xml version="1.0" encoding="UTF-8"?>
<!-- Generator: Adobe Illustrator 25.2.3, SVG Export Plug-In . SVG Version: 6.00 Build 0)  -->
<svg xmlns="http://www.w3.org/2000/svg" xmlns:xlink="http://www.w3.org/1999/xlink" version="1.1" id="Capa_1" x="0px" y="0px" viewBox="0 0 511.479 511.479" style="enable-background:new 0 0 511.479 511.479;" xml:space="preserve" width="512" height="512">
<g>
	<g>
		<path style="fill:#FFFFFF;" d="M255.583,509.354c-55.869-0.341-110.594-18.057-155.117-52.015    c-41.371-31.551-73.15-76.375-88.868-126c-1.885-5.951-3.54-11.975-4.955-18.054c-9.573-41.105-8.976-84.777,2.949-125.336    c13.428-45.671,39.274-86.762,74.273-118.988c10.237-9.426,21.111-18.179,32.818-25.72c20.692-13.327,43.308-23.628,66.939-30.506    c40.7-11.846,86.47-14.476,127.863-4.328c49.728,12.191,95.879,36.789,131.254,74.124c31.424,33.165,53.769,74.891,63.198,119.645    c8.998,42.709,7.032,87.72-5.85,129.434c-15.337,49.663-46.559,93.558-87.793,125.089c-11.504,8.797-23.747,16.626-36.563,23.37    c-19.989,10.519-41.356,18.434-63.409,23.338C293.705,507.548,274.649,509.459,255.583,509.354z"/>
	</g>
	<g>
		<g>
			<g>
				<path style="fill:#7EA8C5;" d="M435.118,416.669c7.271-7.915,14.018-16.33,20.144-25.151c0.453-0.644,0.882-1.287,1.311-1.931      c0.501-0.715,1.001-1.454,1.478-2.169c4.482-6.723,8.63-13.684,12.396-20.883c14.661-27.773,23.935-58.693,26.51-91.496      c0.119-1.383,0.214-2.765,0.286-4.148c0.119-1.526,0.191-3.075,0.262-4.601c0.024-0.406,0.048-0.858,0.048-1.264      c0.143-2.98,0.19-5.984,0.19-9.011c0-15.543-1.502-30.705-4.362-45.414c-0.072-0.477-0.167-0.93-0.286-1.406      c-2.622-13.279-6.389-26.176-11.204-38.572c-0.143-0.381-0.286-0.763-0.453-1.144c-1.311-3.385-2.694-6.723-4.172-10.012      c-0.143-0.358-0.31-0.691-0.477-1.073c-3.337-7.414-7.056-14.59-11.133-21.575c-0.191-0.358-0.382-0.691-0.596-1.049      c-5.984-10.155-12.683-19.834-20.121-28.989c-0.215-0.31-0.477-0.643-0.739-0.953c-7.629-9.369-15.973-18.142-24.936-26.247      c-0.31-0.31-0.62-0.572-0.93-0.858c-0.381-0.358-0.787-0.715-1.192-1.073c-0.31-0.31-0.62-0.572-0.954-0.834      c-8.868-7.772-18.309-14.924-28.25-21.36c-0.381-0.238-0.763-0.477-1.144-0.715c-11.443-7.319-23.554-13.684-36.236-19      c-0.429-0.191-0.834-0.358-1.263-0.524c-3.957-1.645-7.986-3.195-12.063-4.625c-0.358-0.143-0.715-0.262-1.097-0.381      c-9.059-3.147-18.38-5.793-27.892-7.867c-0.477-0.119-0.93-0.215-1.407-0.31c-13.517-2.861-27.463-4.601-41.719-5.125      c-0.453-0.024-0.93-0.024-1.383-0.048c-2.551-0.071-5.126-0.119-7.7-0.119c-7.08,0-14.113,0.31-21.026,0.93      c-0.644,0.024-1.287,0.095-1.931,0.143c-2.074,0.191-4.172,0.406-6.222,0.668c-0.429,0.048-0.858,0.095-1.287,0.167      c-61.339,7.629-115.502,38-153.598,82.342c-0.334,0.334-0.62,0.668-0.858,0.977c-6.461,7.581-12.468,15.591-17.927,23.959      c0,0.024,0,0.024-0.024,0.024c-0.596,0.882-1.168,1.764-1.693,2.67c-14.637,22.933-25.413,48.465-31.468,75.762      c-0.191,0.787-0.358,1.55-0.525,2.336c-3.385,15.901-5.125,32.398-5.125,49.3c0,1.073,0,2.145,0.024,3.218      c0,0.691,0.024,1.359,0.048,2.026c0.334,15.948,2.265,31.516,5.626,46.535c0.072,0.429,0.167,0.858,0.286,1.287      c2.813,12.397,6.627,24.412,11.324,35.998c0.143,0.381,0.286,0.763,0.453,1.12c4.434,10.799,9.655,21.217,15.591,31.158      c0.19,0.334,0.405,0.691,0.62,1.025c2.908,4.863,6.007,9.583,9.25,14.208c3.361,4.792,6.89,9.441,10.608,13.97      c0.238,0.334,0.525,0.644,0.811,0.978c0.596,0.763,1.24,1.526,1.883,2.288c0.31,0.334,0.596,0.691,0.906,1.025      c0.715,0.834,1.454,1.669,2.193,2.503c6.294,7.128,12.992,13.898,20.097,20.192c0.334,0.31,0.667,0.596,1.001,0.882      l109.645-5.371l56.834,43.104l101.279-50.416L435.118,416.669z"/>
			</g>
		</g>
		<g>
			<g>
				<g>
					<g>
						<path style="fill:#FFB9C2;" d="M226.856,18.479c-0.262,0.811-0.501,1.621-0.763,2.432        c-6.294,19.954-12.778,40.575-40.384,62.34c-27.63,21.789-49.181,23.291-70.04,24.745c-19.358,1.359-39.311,2.765-64.2,20.621        c0.525-0.906,1.097-1.788,1.693-2.67c0.024,0,0.024,0,0.024-0.024c24.03-16.425,43.507-17.784,62.412-19.095        c20.669-1.454,42.053-2.956,69.373-24.507s33.757-42.005,39.979-61.768c0.191-0.644,0.405-1.287,0.62-1.907        C225.998,18.574,226.427,18.526,226.856,18.479z"/>
					</g>
				</g>
			</g>
			<g>
				<g>
					<g>
						<path style="fill:#FFB9C2;" d="M265.119,16.905c-6.008,10.442-9.202,20.645-12.373,30.681        c-6.27,19.93-12.754,40.551-40.384,62.34c-27.606,21.789-49.157,23.291-70.017,24.745        c-20.669,1.454-42.053,2.932-69.373,24.483c-27.344,21.575-33.757,42.005-39.979,61.768        c-4.124,13.112-8.32,26.51-18.571,40.337c-0.024-0.668-0.048-1.335-0.048-2.026c9.464-13.231,13.517-26.08,17.474-38.667        c6.27-19.93,12.754-40.551,40.384-62.34c27.606-21.765,49.181-23.291,70.016-24.745c20.693-1.43,42.053-2.932,69.397-24.483        c27.32-21.551,33.757-42.005,39.979-61.768c3.099-9.941,6.294-20.049,12.11-30.372        C264.189,16.881,264.665,16.881,265.119,16.905z"/>
					</g>
				</g>
			</g>
			<g>
				<g>
					<g>
						<path style="fill:#FFB9C2;" d="M308.244,22.341c-18.118,17.951-23.553,35.163-28.822,51.922        c-6.27,19.93-12.754,40.551-40.384,62.34c-27.606,21.789-49.181,23.291-70.017,24.745        c-20.693,1.454-42.053,2.932-69.373,24.483C72.305,207.383,65.892,227.837,59.67,247.6        c-6.222,19.691-12.611,40.05-39.335,61.482c-0.119-0.429-0.215-0.858-0.286-1.287c26.057-21.098,32.374-41.147,38.477-60.552        c6.27-19.93,12.754-40.551,40.384-62.34c27.606-21.789,49.157-23.291,70.017-24.745c20.669-1.43,42.053-2.932,69.373-24.483        c27.344-21.551,33.78-42.005,39.979-61.768c5.269-16.735,10.68-33.924,28.56-51.875        C307.314,22.126,307.767,22.221,308.244,22.341z"/>
					</g>
				</g>
			</g>
			<g>
				<g>
					<g>
						<path style="fill:#FFB9C2;" d="M350.559,35.738c-1.478,1.073-2.98,2.217-4.482,3.409        c-27.32,21.575-33.757,42.005-39.979,61.792c-6.269,19.93-12.778,40.551-40.384,62.34        c-27.606,21.766-49.181,23.291-70.04,24.746c-20.669,1.43-42.029,2.932-69.373,24.483        c-27.32,21.551-33.757,42.005-39.979,61.768c-6.27,19.93-12.754,40.551-40.36,62.34c-4.792,3.766-9.393,6.937-13.851,9.583        c-0.167-0.358-0.31-0.739-0.453-1.12c4.363-2.599,8.868-5.698,13.565-9.393c27.32-21.551,33.757-42.005,39.979-61.768        c6.27-19.954,12.754-40.575,40.36-62.34c27.63-21.789,49.181-23.291,70.04-24.745c20.669-1.454,42.053-2.932,69.373-24.483        c27.32-21.575,33.757-42.005,39.979-61.792c6.27-19.93,12.778-40.551,40.384-62.34c1.335-1.049,2.646-2.05,3.957-3.004        C349.725,35.381,350.13,35.548,350.559,35.738z"/>
					</g>
				</g>
			</g>
			<g>
				<g>
					<g>
						<path style="fill:#FFB9C2;" d="M387.939,55.454c-4.863,2.813-9.917,6.222-15.186,10.37        c-27.344,21.551-33.757,42.005-39.979,61.768c-6.294,19.954-12.778,40.575-40.384,62.364        c-27.63,21.765-49.181,23.267-70.04,24.721c-20.669,1.454-42.053,2.956-69.373,24.507        c-27.32,21.551-33.757,41.981-39.979,61.768c-6.27,19.93-12.754,40.551-40.384,62.34c-8.63,6.818-16.664,11.634-24.292,15.09        c-0.215-0.334-0.429-0.691-0.62-1.025c7.581-3.433,15.591-8.225,24.173-15.019c27.344-21.551,33.781-41.981,39.979-61.744        c6.294-19.954,12.778-40.575,40.384-62.34c27.606-21.789,49.181-23.291,70.04-24.745c20.669-1.454,42.053-2.956,69.373-24.507        c27.32-21.551,33.757-41.981,39.979-61.768c6.27-19.93,12.754-40.551,40.384-62.34c5.125-4.053,10.037-7.39,14.781-10.156        C387.176,54.977,387.558,55.215,387.939,55.454z"/>
					</g>
				</g>
			</g>
			<g>
				<g>
					<g>
						<path style="fill:#FFB9C2;" d="M419.264,79.579c-6.27,3.218-12.874,7.414-19.834,12.921        c-27.344,21.551-33.781,42.005-40.003,61.768c-6.27,19.954-12.754,40.575-40.36,62.34        c-27.63,21.789-49.181,23.291-70.04,24.745c-20.669,1.454-42.053,2.932-69.373,24.507        c-27.32,21.551-33.757,41.981-39.979,61.744c-6.27,19.954-12.754,40.575-40.384,62.34c-10.942,8.63-20.931,14.065-30.3,17.593        c-0.286-0.334-0.572-0.644-0.811-0.978c9.393-3.48,19.405-8.892,30.372-17.546c27.32-21.551,33.757-41.981,39.979-61.768        c6.27-19.93,12.754-40.551,40.384-62.34c27.606-21.766,49.181-23.291,70.017-24.746c20.693-1.43,42.053-2.932,69.397-24.483        c27.32-21.551,33.757-42.005,39.979-61.768c6.27-19.954,12.754-40.551,40.384-62.34c6.89-5.435,13.422-9.607,19.644-12.849        C418.645,79.007,418.954,79.269,419.264,79.579z"/>
					</g>
				</g>
			</g>
			<g>
				<g>
					<g>
						<path style="fill:#FFB9C2;" d="M444.939,106.78c-5.984,3.147-12.253,7.176-18.857,12.397        c-27.32,21.551-33.757,42.005-39.979,61.768c-6.27,19.93-12.754,40.551-40.384,62.34        c-27.606,21.789-49.181,23.291-70.017,24.745c-20.693,1.454-42.053,2.932-69.373,24.483        c-27.344,21.551-33.757,42.005-39.979,61.768c-6.294,19.954-12.778,40.575-40.384,62.34        c-11.157,8.82-21.36,14.304-30.896,17.808c-0.334-0.286-0.668-0.572-1.001-0.882c9.607-3.48,19.882-8.963,31.158-17.856        c27.32-21.551,33.757-42.005,39.979-61.768c6.27-19.93,12.754-40.551,40.384-62.34c27.606-21.789,49.157-23.291,70.016-24.745        c20.669-1.43,42.053-2.932,69.373-24.483c27.344-21.551,33.78-42.005,40.003-61.768c6.27-19.954,12.754-40.575,40.36-62.364        c6.604-5.197,12.873-9.25,18.857-12.396C444.463,106.136,444.725,106.47,444.939,106.78z"/>
					</g>
				</g>
			</g>
			<g>
				<g>
					<g>
						<path style="fill:#FFB9C2;" d="M465.656,136.818c-4.148,2.527-8.439,5.507-12.897,9.011        c-27.32,21.575-33.757,42.005-39.979,61.792c-6.27,19.93-12.754,40.551-40.384,62.34        c-27.606,21.789-49.181,23.291-70.04,24.745c-20.669,1.43-42.029,2.932-69.373,24.483        c-27.32,21.551-33.757,42.005-39.979,61.768c-6.27,19.93-12.754,40.551-40.36,62.34c-8.916,7.033-17.188,11.944-25.008,15.424        c-0.429-0.238-0.834-0.501-1.239-0.763c7.962-3.457,16.425-8.415,25.508-15.591c27.32-21.551,33.757-42.005,39.979-61.768        c6.27-19.954,12.754-40.574,40.36-62.34c27.63-21.789,49.181-23.291,70.04-24.745c20.669-1.454,42.053-2.932,69.373-24.483        c27.32-21.575,33.757-42.005,39.979-61.768c6.27-19.954,12.778-40.575,40.384-62.364c4.506-3.552,8.845-6.556,13.04-9.131        C465.274,136.126,465.465,136.46,465.656,136.818z"/>
					</g>
				</g>
			</g>
			<g>
				<g>
					<g>
						<path style="fill:#FFB9C2;" d="M481.891,170.622c-0.811,0.596-1.645,1.24-2.456,1.883        c-27.32,21.551-33.757,42.005-39.979,61.768c-6.293,19.954-12.778,40.575-40.384,62.364        c-27.606,21.766-49.181,23.267-70.04,24.746c-20.669,1.43-42.053,2.932-69.373,24.483        c-27.32,21.551-33.757,41.981-39.979,61.768c-6.27,19.93-12.754,40.551-40.384,62.34c-4.196,3.29-8.225,6.126-12.158,8.558        c-0.477-0.167-0.93-0.358-1.383-0.524c4.124-2.503,8.392-5.483,12.826-8.964c27.32-21.575,33.757-42.005,39.955-61.768        c6.294-19.954,12.778-40.575,40.384-62.34c27.606-21.789,49.181-23.291,70.04-24.745c20.669-1.454,42.053-2.956,69.373-24.507        c27.32-21.551,33.757-41.981,39.979-61.768c6.27-19.93,12.754-40.551,40.384-62.34c0.93-0.715,1.836-1.43,2.741-2.098        C481.605,169.859,481.747,170.241,481.891,170.622z"/>
					</g>
				</g>
			</g>
			<g>
				<g>
					<g>
						<path style="fill:#FFB9C2;" d="M493.381,210.601c-16.902,17.403-22.147,34.114-27.249,50.349        c-6.294,19.954-12.778,40.575-40.384,62.34c-27.63,21.789-49.181,23.291-70.04,24.745        c-20.669,1.454-42.053,2.932-69.373,24.507c-27.32,21.551-33.757,41.981-39.979,61.744        c-5.769,18.332-11.705,37.261-34.09,57.072c-0.501-0.095-1.001-0.167-1.502-0.262c22.719-19.858,28.679-38.787,34.448-57.167        c6.27-19.93,12.778-40.551,40.384-62.34c27.606-21.765,49.181-23.267,70.017-24.745c20.693-1.43,42.053-2.932,69.396-24.483        c27.32-21.551,33.757-42.005,39.979-61.768c5.221-16.568,10.561-33.614,28.107-51.398        C493.214,209.671,493.31,210.124,493.381,210.601z"/>
					</g>
				</g>
			</g>
			<g>
				<g>
					<g>
						<path style="fill:#FFB9C2;" d="M497.243,270.891c-0.072,1.383-0.167,2.765-0.286,4.148c-1.526,4.22-2.861,8.415-4.172,12.587        c-6.27,19.93-12.754,40.551-40.384,62.34c-27.606,21.789-49.181,23.291-70.017,24.745        c-20.669,1.454-42.053,2.932-69.373,24.483c-27.344,21.575-33.757,42.005-39.979,61.768        c-3.528,11.205-7.128,22.6-14.447,34.305c-0.5,0-0.977,0.024-1.478,0c7.581-11.825,11.228-23.363,14.78-34.663        c6.27-19.93,12.754-40.551,40.384-62.34c27.606-21.789,49.181-23.291,70.017-24.746c20.669-1.43,42.053-2.932,69.373-24.483        c27.344-21.551,33.781-42.005,40.003-61.768C493.381,281.857,495.074,276.398,497.243,270.891z"/>
					</g>
				</g>
			</g>
			<g>
				<g>
					<g>
						<path style="fill:#FFB9C2;" d="M456.573,389.587c-0.429,0.644-0.859,1.287-1.311,1.931c-16.95,7.819-31.754,8.868-46.225,9.87        c-20.669,1.43-42.029,2.932-69.373,24.483c-27.32,21.551-33.757,42.005-39.979,61.768c-0.405,1.335-0.834,2.646-1.24,3.981        c-0.453,0.095-0.882,0.167-1.335,0.238c0.501-1.526,0.977-3.052,1.454-4.577c6.27-19.954,12.754-40.551,40.36-62.34        c27.63-21.789,49.181-23.291,70.04-24.745C423.818,399.147,439.051,398.098,456.573,389.587z"/>
					</g>
				</g>
			</g>
		</g>
		<g>
			<g>
				<g>
					<path style="fill:#FFC17D;" d="M143.587,365.515c-13.205-18.089-22.312-41.373-17.031-63.394       c2.292-9.559,7.184-18.315,13.359-25.797c21.688-26.28,56.784-35.526,89.896-39.593c28.742-3.531,58.289-4.124,86.692,2.391       c28.767,6.599,59.229,19.253,68.422,51.182c4.188,14.544,5.01,31.392-0.386,45.706c-4.988,13.232-15.15,23.165-23.067,34.454       c-7.044,10.045-18.456,18.137-22.413,29.862c-2.778,8.229,0.918,20.042-4.437,26.762c-5.385,6.757-13.41,10.571-21.317,13.662       c-22.388,8.751-46.75,13.495-70.36,9.487c-16.783-2.849-33.086-10.463-45.574-22.554c-5.227-5.06-9.137-10.833-13.396-16.7       c-5.333-7.346-12.039-13.566-18.283-20.057C157.919,382.848,150.238,374.628,143.587,365.515z"/>
				</g>
			</g>
			<g>
				<g>
					<path style="fill:#FF8476;" d="M314.299,374.736c-0.31-0.119-0.596-0.238-0.834-0.358c-1.335-0.596-2.026-0.906-2.026-0.906       l-3.886-29.179l-2.074-15.663v-0.024l-1.311-10.036l-94.118,6.675c0,0,0.048,2.074,0.048,5.435       c0.024,1.788,0.024,3.934,0,6.318c0,1.216-0.024,2.479-0.048,3.79c-0.048,3.218-0.143,6.746-0.286,10.37       c-0.524,13.159-1.788,27.415-4.911,32.779c-0.095,0.167-0.191,0.31-0.286,0.453v0.024c-0.358,0.548-0.763,0.977-1.168,1.264       l-16.896,28.812l70.606,44.232l73.422-50.23L314.299,374.736z"/>
				</g>
			</g>
			<g style="opacity:0.67;">
				<g>
					<path style="fill:#331510;" d="M307.557,344.301c-4.85,3.896-10.128,7.242-15.739,9.944       c-20.375,9.752-44.506,10.876-66.07,4.087c-4.089-1.291-10.247-3.753-15.976-7.171c0.571-13.576,0.285-25.91,0.285-25.91       l94.1-6.693L307.557,344.301z"/>
				</g>
			</g>
			<g>
				<g>
					<g>
						<g>
							<g>
								<g>
									<path style="fill:#FF8476;" d="M125.93,194.266c-8.322-1.855-17.479-0.011-24.188,5.275           c-9.172,7.227-12.838,20.284-10.109,31.674c2.729,11.39,11.198,20.923,21.546,26.309           c10.348,5.386,22.395,6.898,33.997,5.806c2.326-0.219,4.805-0.611,6.52-2.205c1.325-1.231,1.997-3.01,2.466-4.762           c1.684-6.29,1.286-12.959,0.269-19.392C153.458,218.163,146.594,198.871,125.93,194.266z"/>
								</g>
							</g>
							<g>
								<g>
									<path style="fill:#FF8476;" d="M376.468,190.605c8.322-1.855,17.479-0.011,24.188,5.275           c9.172,7.227,12.838,20.284,10.109,31.674c-2.729,11.39-11.198,20.923-21.546,26.309           c-10.348,5.386-22.394,6.898-33.996,5.806c-2.326-0.219-4.805-0.611-6.521-2.205c-1.325-1.231-1.997-3.01-2.466-4.762           c-1.683-6.29-1.286-12.959-0.269-19.392C348.94,214.502,355.804,195.21,376.468,190.605z"/>
								</g>
							</g>
						</g>
						<g>
							<g>
								<g>
									<path style="fill:#331510;" d="M356.845,244.413c-0.11,0-0.22-0.02-0.328-0.063c-0.459-0.18-0.684-0.699-0.503-1.159           c8.495-21.542,26.633-38.747,48.519-46.027c0.462-0.155,0.974,0.099,1.13,0.567c0.156,0.468-0.098,0.974-0.567,1.13           c-21.389,7.114-39.116,23.932-47.42,44.987C357.538,244.198,357.201,244.413,356.845,244.413z"/>
								</g>
							</g>
							<g>
								<g>
									<path style="fill:#331510;" d="M147.362,252.053c-0.335,0-0.658-0.19-0.81-0.512           c-10.048-21.303-28.196-38.786-49.793-47.965c-0.455-0.193-0.667-0.718-0.474-1.172c0.192-0.458,0.717-0.666,1.172-0.474           c21.996,9.35,40.479,27.155,50.713,48.848c0.211,0.447,0.019,0.98-0.427,1.191           C147.619,252.026,147.489,252.053,147.362,252.053z"/>
								</g>
							</g>
						</g>
					</g>
					<g>
						<g>
							<path style="fill:#FF8476;" d="M364.901,195.055c0,0.143-0.024,0.311-0.048,0.478c-2.496,20.7-6.253,41.996-9.7,62.6         c-0.095,0.502-0.166,0.98-0.262,1.482c-0.142,0.837-0.309,1.673-0.475,2.51c-8.963,47.948-31.24,71.133-90.938,73.524         c-19.471,0.789-39.299-0.478-58.01-6.286c-13.599-4.207-27.531-10.35-37.255-21.153         c-10.461-11.569-14.003-27.727-17.736-42.594c-0.214-0.884-0.452-1.769-0.666-2.653c-4.636-18.07-8.844-39.917-11.245-63.03         c-0.024-0.263-0.048-0.526-0.072-0.789c-2.472-24.117-2.995-49.549-0.047-73.428c2.449-19.935,10.794-34.754,21.873-45.749         c0.095-0.096,0.19-0.191,0.285-0.287c32.714-32.149,88.917-31.479,88.917-31.479c29.766-0.621,55.419,5.665,75.009,17.066         c0.238,0.143,0.476,0.287,0.713,0.43c19.162,11.306,32.405,27.607,37.778,47.183         C369.466,136.303,368.538,165.01,364.901,195.055z"/>
						</g>
					</g>
				</g>
				<g>
					<g>
						<g>
							<path style="fill:#331510;" d="M364.905,194.953c-0.332,0.406-0.689,0.812-1.068,1.193c-0.689,0.74-1.401,1.456-2.137,2.148         c-0.071-0.071-0.142-0.167-0.214-0.238c-32.359-34.92-46.485-85.998-36.893-132.709c19.515,11.314,33,27.759,38.436,47.546         C369.463,136.284,368.537,164.951,364.905,194.953z"/>
						</g>
					</g>
					<g>
						<g>
							<path style="fill:#331510;" d="M325.306,65.777c-12.654,11.266-28.204,19.262-44.49,24.036         c-21.106,6.182-43.47,7.208-65.406,5.561c-18.992-1.432-38.84-5.323-54.509-15.634         c32.667-32.103,88.791-31.435,88.791-31.435c29.724-0.62,55.34,5.657,74.902,17.042         C324.831,65.491,325.068,65.634,325.306,65.777z"/>
						</g>
					</g>
					<g>
						<g>
							<path style="fill:#331510;" d="M170.235,142.613c-4.85,21.942-15.953,41.925-27.055,61.477         c-0.238,0.43-0.476,0.836-0.713,1.267c-0.523-1.601-1.45-2.988-2.473-4.302c-0.499-0.645-0.998-1.267-1.498-1.912         c-2.472-24.117-2.995-49.549-0.047-73.428c2.449-19.935,10.794-34.754,21.873-45.749c3.804,2.749,6.562,11.21,7.893,14.939         C173.635,110.082,173.706,126.981,170.235,142.613z"/>
						</g>
					</g>
				</g>
				<g>
					<g>
						<g>
							<path style="fill:#331510;" d="M245.141,261.328c-9.21,0-18.421-1.823-26.958-5.494c-0.604-0.261-0.884-0.961-0.624-1.567         c0.26-0.605,0.963-0.882,1.567-0.624c18.044,7.763,39.213,6.966,56.624-2.129c0.58-0.303,1.303-0.079,1.609,0.505         c0.304,0.583,0.078,1.304-0.505,1.609C267.05,258.748,256.097,261.328,245.141,261.328z"/>
						</g>
					</g>
					<g>
						<g>
							<g>
								<g>
									<path style="fill:#331510;" d="M208.861,197.481c0.109,6.066-4.694,11.072-10.727,11.182           c-6.033,0.11-11.013-4.719-11.122-10.785s4.694-11.072,10.727-11.182C203.772,186.587,208.752,191.415,208.861,197.481z"/>
								</g>
							</g>
							<g>
								<g>
									<path style="fill:#331510;" d="M316.891,195.517c0.109,6.066-4.693,11.072-10.727,11.182           c-6.033,0.11-11.013-4.719-11.122-10.785c-0.109-6.066,4.693-11.072,10.727-11.182           C311.803,184.623,316.782,189.452,316.891,195.517z"/>
								</g>
							</g>
						</g>
						<g>
							<g>
								<path style="fill:#331510;" d="M247.468,241.062c-0.01,0-0.022,0-0.033,0c-1.763-0.007-3.39-0.588-4.964-1.149          c-1.233-0.441-2.398-0.857-3.599-1.003c-1.587-0.194-3.369,0.061-5.087,0.311c-3.214,0.464-6.532,0.939-9.028-1.367          c-3.266-3.016-2.049-8.149-1.243-11.546c2.018-8.511,2.609-17.464,3.179-26.122c0.652-9.885,1.326-20.105,4.12-29.796          c1.745-6.05,4.366-9.633,8.015-10.951c0.464-0.166,0.976,0.072,1.144,0.537c0.168,0.464-0.072,0.976-0.537,1.144          c-3.071,1.11-5.329,4.306-6.904,9.766c-2.74,9.504-3.408,19.628-4.053,29.418c-0.576,8.731-1.171,17.76-3.224,26.417          c-0.901,3.802-1.589,7.692,0.717,9.821c1.873,1.731,4.635,1.332,7.561,0.91c1.838-0.265,3.735-0.541,5.558-0.315          c1.398,0.17,2.713,0.639,3.984,1.093c1.497,0.534,2.911,1.039,4.369,1.045c0.008,0,0.018,0,0.026,0          c1.787,0,3.485-0.743,5.284-1.53c1.698-0.743,3.456-1.511,5.38-1.666c1.651-0.134,3.238,0.2,4.774,0.524          c1.141,0.239,2.218,0.464,3.304,0.511c1.471,0.045,3.136-0.512,4.065-1.434c0.555-0.552,0.825-1.18,0.801-1.867          c-0.016-0.493,0.369-0.908,0.862-0.924c0.444-0.037,0.908,0.368,0.924,0.861c0.042,1.189-0.418,2.294-1.328,3.199          c-1.28,1.27-3.403,2.031-5.4,1.951c-1.233-0.051-2.434-0.304-3.594-0.547c-1.478-0.311-2.879-0.61-4.264-0.491          c-1.626,0.131-3.171,0.807-4.807,1.523C251.579,240.209,249.628,241.062,247.468,241.062z"/>
							</g>
						</g>
						<g>
							<g>
								<path style="fill:#331510;" d="M287.538,156.173c-2.52,3.046-3.83,6.85-2.122,10.842c1.355,3.167,4.655,5.063,7.952,6.01          c6.682,1.919,13.902,2.984,20.846,2.91c5.34-0.057,13.466-0.917,15.875-6.639c1.136-2.7,0.533-5.848-0.682-8.512          c-2.85-6.25-8.778-10.253-15.302-11.821c-6.199-1.49-13.162-0.96-19.016,1.601          C292.421,151.73,289.582,153.702,287.538,156.173z"/>
							</g>
						</g>
						<g>
							<g>
								<path style="fill:#331510;" d="M213.62,156.36c0.171,0.177,0.338,0.356,0.5,0.537c1.811,2.02,3.078,4.692,2.825,7.401          c-0.485,5.182-5.657,7.768-10.058,9.07c-8.929,2.641-21.109,4.228-30.075,0.775c-2.579-0.993-4.947-2.918-5.794-5.561          c-0.563-1.757-0.412-3.675,0.029-5.467c3.204-12.997,20.042-17.371,31.415-13.606          C206.441,150.826,210.655,153.289,213.62,156.36z"/>
							</g>
						</g>
					</g>
				</g>
				<g>
					<g>
						<path style="fill:#331510;" d="M354.416,262.125c-8.963,47.948-31.24,71.133-90.938,73.524        c-19.471,0.789-39.299-0.478-58.01-6.286c-13.599-4.207-27.531-10.35-37.255-21.153        c-10.461-11.569-14.003-27.727-17.736-42.594c14.55,4.279,27.222,14.82,34.021,28.468c2.829,5.736,4.708,11.975,8.25,17.281        c3.519,5.33,9.391,9.752,15.715,9.155c5.896-0.55,10.484-5.115,15.097-8.844c15.216-12.31,37.73-17.043,54.634-7.219        c5.468,3.179,10.413,7.792,16.666,8.677c9.296,1.291,17.403-6.167,23.204-13.6c5.896-7.553,11.031-15.728,17.355-22.922        C340.722,270.586,347.07,265.16,354.416,262.125z"/>
					</g>
				</g>
			</g>
			<g>
				<g>
					<path style="fill:#FADED3;" d="M330.796,483.396c-22.195,7.247-45.819,11.371-70.302,11.848       c-1.645,0.024-3.266,0.048-4.911,0.048c-2.193,0-4.386-0.024-6.58-0.095c-1.883-0.047-3.767-0.119-5.65-0.214       c-1.598-0.072-3.195-0.167-4.792-0.31c-1.168-0.072-2.313-0.167-3.457-0.262c-11.348-0.93-22.457-2.67-33.28-5.126       l-38.49-57.014l40.063-46.592c0.405-0.286,0.811-0.715,1.168-1.264v-0.024c0.095-0.143,0.191-0.286,0.286-0.453       c6.389,6.437,11.538,12.611,20.263,16.95c10.299,5.102,22.028,7.462,33.494,6.508c21.932-1.812,42.172-14.876,54.855-33.018       c0.238,0.119,0.525,0.238,0.834,0.358l29.615,35.306L330.796,483.396z"/>
				</g>
			</g>
			<g>
				<g>
					<path style="fill:#FFC17D;" d="M204.542,389.611c-1.001,14.089-1.883,28.154-2.503,42.244v0.024       c-0.286,6.46-0.525,12.897-0.668,19.358c0,0,0,0.024,0,0.048c-0.143,4.816-0.262,9.631-0.31,14.447       c-0.072,7.772-0.095,15.567-0.024,23.339c0,0.024,0,0.024,0,0.048c-0.334-0.071-0.668-0.167-1.001-0.238       c-11.824-2.765-23.291-6.413-34.377-10.871c-0.596-0.215-1.168-0.453-1.764-0.691c-5.936-2.455-11.753-5.125-17.45-8.01       c-1.716-0.858-3.409-1.74-5.102-2.67c-2.026-1.073-4.005-2.169-5.984-3.314c-1.955-1.12-3.91-2.288-5.864-3.48       c-5.96-3.624-11.705-7.509-17.284-11.634c-2.026-1.478-4.005-3.028-5.984-4.554c-3.695-2.908-7.629-6.055-11.157-9.226       c18.619-19.143,50.683-30.848,75.047-38.381c0.024,0,0.024,0,0.024,0c0.143-0.048,0.286-0.072,0.429-0.143       c0.548-0.143,1.073-0.31,1.597-0.477c15.973-4.84,28.417-7.796,31.23-9.75c0.405-0.286,0.811-0.715,1.168-1.264       C204.805,385.559,204.733,387.156,204.542,389.611z"/>
				</g>
			</g>
			<g>
				<g>
					<path style="fill:#FFC17D;" d="M435.118,416.669c-7.204,7.936-15.892,15.162-24.118,22.094       c-1.427,1.195-2.877,2.39-4.327,3.561c-2.52,2.032-5.064,3.992-7.679,5.88c-20.494,15.13-43.46,27.105-68.209,35.184       c-0.951-4.207-1.878-8.414-2.781-12.62c-6.158-29.041-13.956-60.76-14.36-90.566c-0.024-1.984,0.214-3.8,0.666-5.474       c8.06,3.394,32.88,13.29,71.181,23.161C410.453,404.32,426.416,411.458,435.118,416.669z"/>
				</g>
			</g>
			<g>
				<g>
					<path style="fill:#331510;" d="M201.825,489.236c0,0,0,0.024,0,0.048c-0.262-0.048-0.524-0.095-0.787-0.167       c-0.334-0.071-0.668-0.167-1.001-0.238c0-0.024,0-0.024,0-0.048c-0.262-8.082-0.167-13.994-0.048-20.263       c0.048-2.527,0.072-5.102,0.095-7.867c0.143-19.095-6.866-38.167-18.786-53.138c-1.073-1.335-2.193-2.67-3.361-3.933       c-0.572-0.643-1.144-1.263-1.74-1.883c-1.931-2.003-3.933-3.91-6.055-5.698c0,0,0,0-0.024,0       c-2.455-2.098-5.054-4.053-7.748-5.817c-0.405-0.286-0.524-0.834-0.262-1.24c0.286-0.405,0.834-0.524,1.24-0.262       c0.215,0.143,0.453,0.286,0.668,0.453c2.861,1.907,5.578,3.981,8.153,6.246c8.797,7.676,15.973,17.236,21.05,27.82       c4.267,8.797,7.057,18.309,8.153,27.988c0,0,0,0.024,0,0.048c0.358,3.123,0.525,6.294,0.501,9.44       c-0.024,2.765-0.048,5.34-0.095,7.867C201.658,474.98,201.562,480.988,201.825,489.236z"/>
				</g>
			</g>
			<g>
				<g>
					<path style="fill:#331510;" d="M330.863,483.2c-0.379,0-0.732-0.243-0.852-0.625c-4.891-15.478-10.509-38.631-2.871-60.898       c6.529-19.037,20.241-35.113,32.339-49.296c0.321-0.375,0.888-0.42,1.259-0.1c0.376,0.32,0.421,0.885,0.1,1.26       c-11.994,14.063-25.589,30.001-32.009,48.716c-5.683,16.569-4.767,35.565,2.884,59.78c0.149,0.47-0.112,0.973-0.583,1.121       C331.042,483.187,330.951,483.2,330.863,483.2z"/>
				</g>
			</g>
			<g>
				<g>
					<g>
						<g>
							<path style="fill:#331510;" d="M352.061,411.448c-1.216-2.551-3.29-4.029-5.841-4.22c-2.67-0.191-5.364,1.144-6.842,3.361         c-0.739,1.121-1.097,2.336-1.097,3.624c0,1.168,0.31,2.384,0.93,3.6c0.835,1.669,2.432,2.956,4.339,3.576         c0.763,0.238,1.55,0.358,2.312,0.358c0.334,0,0.644-0.024,0.954-0.072c0.644-0.071,1.264-0.238,1.836-0.524         c0.095-0.048,0.215-0.095,0.31-0.143C352.228,419.315,353.682,414.834,352.061,411.448z M348.366,419.911         c-0.167,0.095-0.334,0.167-0.501,0.215c-0.596,0.238-1.264,0.358-1.931,0.358c-0.668,0.024-1.335-0.071-2.003-0.286         c-1.597-0.525-2.909-1.597-3.6-2.956c-1.073-2.098-1.025-4.22,0.095-5.936c1.144-1.716,3.242-2.813,5.316-2.813h0.382         c2.098,0.143,3.79,1.383,4.792,3.48C352.252,414.738,351.036,418.505,348.366,419.911z"/>
						</g>
					</g>
					<g>
						<g>
							<path style="fill:#331510;" d="M362.026,453.144c-0.62,2.36-1.597,4.649-2.527,6.842c-1.001,2.408-2.05,4.887-2.622,7.414         c-0.429,1.955-0.572,3.957-0.406,5.912c0,0.143,0,0.262,0.024,0.381l-1.716,0.787c-0.024-0.119-0.048-0.238-0.048-0.381         c-0.238-2.36-0.119-4.744,0.405-7.081c0.596-2.694,1.669-5.268,2.718-7.724c0.906-2.146,1.836-4.362,2.432-6.603         c1.74-6.675,0.429-13.994-3.528-19.62c-1.502-2.169-3.433-4.196-5.316-6.174c-1.621-1.693-3.242-3.409-4.625-5.221         c-0.334-0.381-0.62-0.787-0.882-1.192c-1.693-2.431-2.861-5.078-3.028-8.129c-0.024-0.501,0.358-0.906,0.858-0.93         c0.405-0.048,0.906,0.334,0.93,0.834c0.167,2.956,1.407,5.483,3.171,7.867c0.238,0.334,0.501,0.691,0.787,1.025         c1.216,1.526,2.622,3.004,4.077,4.506c1.931,2.026,3.909,4.124,5.507,6.389C362.479,438.077,363.885,445.968,362.026,453.144         z"/>
						</g>
					</g>
				</g>
				<g>
					<g>
						<g>
							<path style="fill:#331510;" d="M180.965,414.667c-1.454-2.217-4.148-3.528-6.818-3.362c-2.575,0.191-4.649,1.669-5.841,4.196         c-1.621,3.409-0.167,7.867,3.099,9.584c0.095,0.048,0.215,0.095,0.31,0.143c0.572,0.262,1.192,0.429,1.836,0.525         c0.31,0.048,0.62,0.071,0.954,0.071c0.763,0,1.55-0.119,2.288-0.358c1.931-0.62,3.505-1.931,4.363-3.576         C182.443,419.363,182.372,416.788,180.965,414.667z M180.035,421.318c-0.691,1.359-2.026,2.432-3.624,2.932         c-0.668,0.215-1.335,0.31-1.979,0.31c-0.667,0-1.335-0.119-1.931-0.381c-0.167-0.048-0.334-0.119-0.501-0.215         c-2.67-1.383-3.886-5.149-2.574-7.915c1.001-2.098,2.718-3.337,4.792-3.481c0.143-0.024,0.286-0.024,0.405-0.024         c2.074,0,4.172,1.097,5.292,2.813c0.596,0.906,0.882,1.907,0.882,2.956C180.798,419.292,180.56,420.293,180.035,421.318z"/>
						</g>
					</g>
					<g>
						<g>
							<path style="fill:#331510;" d="M177.461,416.431c-0.167,3.051-1.359,5.698-3.028,8.129c-0.262,0.405-0.548,0.811-0.882,1.192         c-1.383,1.812-3.028,3.528-4.625,5.221c-1.883,1.979-3.814,4.005-5.34,6.151c-3.933,5.626-5.245,12.969-3.505,19.62         c0.572,2.265,1.526,4.482,2.432,6.604c1.025,2.479,2.122,5.03,2.718,7.748c0.501,2.265,0.62,4.577,0.429,6.866         c0,0.024,0,0.048,0,0.048c-0.596-0.215-1.168-0.453-1.764-0.691c0,0,0.024-0.024,0-0.047         c0.143-1.931,0.024-3.886-0.405-5.793c-0.572-2.551-1.621-5.03-2.646-7.414c-0.93-2.217-1.883-4.482-2.503-6.866         c-1.859-7.152-0.453-15.043,3.791-21.098c1.573-2.265,3.576-4.339,5.507-6.365c1.43-1.502,2.837-2.98,4.076-4.506         c0.262-0.334,0.548-0.691,0.787-1.049c1.764-2.384,3.004-4.911,3.171-7.843c0.024-0.501,0.477-0.882,0.93-0.859         C177.103,415.501,177.485,415.93,177.461,416.431z"/>
						</g>
					</g>
				</g>
			</g>
		</g>
	</g>
</g>















</svg>
